DBRep_DrawableShape

CASCADE Topology V1, (c) Matra-Datavision
Locations 0
Curve2ds 36
7 0 0  7 62 11  699.99999999999989 500.00000000000006  699.99999820213532 478.26022988833336  697.24295802464235 456.03323713272357  691.50719619347694 433.89646592712552  682.76022711874884 412.41643074188909  671.09794949943648 392.1404024552844  656.74101965309194 373.60979190240329  624.50412848743076 341.95549809060105  606.84536433421465 328.53482369818698  587.49418031214327 317.4403986303563  566.86663109886626 308.93022958795308  545.40815715600093 303.16744265274104  523.59987869680526 300.22208103322623  492.19868939424242 299.91376020363214  482.46204814053652 300.3746747346101  472.79798882957505 301.3853454065499  463.24847741363675 302.93423620210928  453.85319111383842 305.00531338625905  444.64951842013488 307.57804550628316  418.26078755598689 316.54195874252827  403.40482927701134 323.6769537781509  389.57690436163801 331.69384405146531  375.64667907831728 341.39231226226406  361.69321251378261 353.41185891369116  348.71609647704884 367.70225917166016  327.66798206253173 397.17364866082289  319.30312142459979 411.61192662157282  312.3176585231933 426.92269272897374  306.83470207758893 442.92801536183407  302.94469673665122 459.43263256641984  300.70380099248905 476.22500885678068  299.37350781629533 514.61574434873955  301.3345110519146 536.28688108159577  306.03570588712847 557.58608344493973  313.36379296134839 578.06563438162743  323.12493972855515 597.32430944019802  335.04144534728198 615.00290082186382  355.67065098428219 638.86015595071433  363.1079311202655 646.44031115169332  370.94538459891675 653.5032735291868  379.12102162418392 660.01496543083942  387.59183309014014 665.95994996193372  396.33379058098404 671.34143098539039  416.08954994068108 681.95574818084413  427.36701267421671 687.02956706398709  439.10937965985261 691.32792543427979  451.24294376326441 694.78840553206169  463.68514562759674 697.36095617492731  476.34457367346374 699.00789275772706  511.98034122341147 700.94918083407924  535.26329433314072 699.15558922613263  558.348449588059 694.16636664826615  580.65447826335208 686.02944975126979  601.63894083006358 674.91089530429758  620.78707091402475 661.09698118309041  654.92295463388314 628.70336433018531  669.86589692222549 609.97379176407549  682.02018657467806 589.37894146044391  691.14323989262175 567.49306920820277  697.12648974757781 544.89704130092355  699.99999816455829 522.19415145319158  699.99999999999989 500.00000000000006 
 0 8 0.13049020344975501 6 0.25317997824683336 6 0.30855294746427619 6 0.41595473619158729 6 0.50563616193478789 6 0.62029703111045431 6 0.67863043203448215 6 0.74822925734734058 6 0.87275470954961909 6 1 8
7 0 0  7 8 2  6.2831853001287108 100.00000000000001  5.218958709631579 99.999999999956344  5.0647967838667682 100.00000000087311  2.8772400837624446 99.999999999650754  3.6577520809260022 100.00000000128057  1.2215785399748711 99.999999998603016  1.1169711455504512 100.00000000024738  7.3818104276095132e-009 100 
 0 8 1 8
7 0 0  4 5 2  500.00000000000006 699.99999410559019  500.00000000000006 774.99999557919296  500.00000000000006 849.9999970527947  500.00000000000006 924.99999852639769  500.00000000000006 1000 
 0 5 1 5
7 0 0  4 5 2  4500 -199.99999410559016  4500 -274.99999557919296  4500 -349.99999705279458  4500 -424.99999852639769  4500 -500 
 0 5 1 5
7 0 0  4 5 2  699.99999999999989 500.00000000000011  775.00000000000023 500.00000000000011  849.99999999999977 499.99999999999989  924.99999999999989 500  1000 500 
 0 5 1 5
7 0 0  4 5 2  4500 199.99999999999989  4500 275.00000000000017  4500 349.99999999999977  4500 424.99999999999989  4500 500 
 0 5 1 5
7 0 0  1 2 2  0 1000  1000 1000 
 0 2 1000 2
7 0 0  1 2 2  4000 0  4000 1000 
 0 2 1000 2
7 0 0  1 2 2  1000 0  1000 1000 
 0 2 1000 2
7 0 0  1 2 2  4000 0  4000 -1000 
 0 2 1000 2
7 0 0  2 3 2  -8.8817841970012523e-016 100.00000000100002  -4.4408920985006262e-015 550  -8.8817841970012523e-016 999.99999999899956 
 100.00000000000045 3 1000 3
7 0 0  1 2 2  4499.9999999991996 200  5400 200 
 99.999999999200099 2 1000 2
7 0 0  2 7 4  1.0000003956959452e-009 1000  1.0471975511965974 999.99999999999898  2.0943951013931943 1000.0000000000008  3.1415926535897909 999.99999999999784  4.1887902037863913 1000.0000000000018  5.2359877559829835 1000  6.2831853061795853 1000.0000000000001 
 0 3 2.0943951023931953 2 4.1887902047863905 2 6.2831853071795862 3
7 0 0  8 97 13  200.00000000000003 1.6539872550944251e-007  199.99999997625127 10.825317903305404  199.33035721583292 22.037252141395584  197.90736590977758 33.587486966513097  195.64732067286968 45.408326228149235  192.47175396420062 57.409853678196669  188.31523462058976 69.478000564035028  183.13609467120841 81.478129605296999  176.92307687561308 93.264274343748397  172.26331395207896 102.1038824726659  167.02199196709989 110.82312547303445  161.19437641637342 119.36040848333505  154.78531712514814 127.65057005686685  147.81095347137307 135.62692749142298  140.2995049638339 143.22446097253851  132.29080015516894 150.38324543474258  123.83419686965718 157.05123904524604  111.14929381929687 167.05322945624357  97.456614299560897 175.95093338657171  82.922868059482425 183.5687004905194  67.762948581483215 189.77061566896737  52.226509511470795 194.48139291256666  36.566183218033984 197.69863780075684  21.010532455286011 199.47819394781254  5.7527540686266549 199.91724743159577  -9.5050260762218386 200.35630027099978  -24.464938713936135 199.45484532928094  -38.933889709878713 197.31002912018448  -52.75425595138222 194.06018191576004  -65.816807579714805 189.86724898591638  -78.058737688465044 184.89424751279876  -89.453124289022526 179.29432212153915  -99.999999856760397 173.20508083958731  -109.37500029703369 167.79242178687127  -118.74999878602102 161.60652700066566  -128.04129995405674 154.5990630351007  -137.14842440001667 146.73138673231006  -145.95426869951189 137.98050163313746  -154.32733079837635 128.34677680209279  -162.13017742632655 117.86144553334452  -169.23076928501371 106.58774191811391  -174.55621302215673 98.132464785910273  -179.48663796978508 89.233725297988713  -183.96633415736142 79.918220679173828  -187.9412950379774 70.222731732937973  -191.36184138122189 60.194576918271196  -194.18577412575542 49.890704949491919  -196.38111092806002 39.375570904096222  -197.92746114383411 28.717940823743561  -200.24698740470922 12.731497330561979  -201.10628527682275 -3.5755629324121401  -200.43659200519323 -19.971039984375238  -198.2276483271271 -36.200872889719903  -194.53908161632717 -52.011212505865842  -189.49513424187899 -67.182075311196968  -183.258449686924 -81.543442121852422  -176.00979196473463 -94.976592550643005  -168.7611328047351 -108.40974418324186  -160.50049359863624 -120.91468107001856  -151.40855279564857 -132.37275215797126  -141.68391943816096 -142.71661670133471  -131.5214572083205 -151.93265189696103  -121.09374650847167 -160.0479735690169  -110.54687556787394 -167.11583914700896  -100.00000014323953 -173.20508067418834  -90.624999680861947 -178.61773968877969  -80.580358417937532 -183.64377914881334  -69.86606601276435 -188.18654999695718  -58.498896269593388 -192.13971303217113  -46.517485273070633 -195.39035527221859  -33.987903811503202 -197.82477737544104  -21.005917245201999 -199.33957513875794  -7.6923075905993539 -199.85201626186222  2.2928990704852397 -200.23634725848703  12.464646002496011 -200.05685077073576  22.771957746692351 -199.27862916361482  33.155977916147094 -197.87330179149285  43.550887909437733 -195.8215044105018  53.886269164360783 -193.11516592189582  64.090310772337205 -189.75881633882605  74.093264274176875 -185.76917986898948  89.097693586954847 -179.78472679143306  103.64967097295448 -172.37537042424083  117.51372396200895 -163.59766057319939  130.46469971910119 -153.56974270567298  142.31257210578769 -142.47018049191684  152.92895101895556 -130.51656247163191  162.24791723355884 -117.93475182878319  170.25703789610773 -104.94065488095298  178.26615887862863 -91.946556091177627  184.96543233189732 -78.540164228994399  190.34244247991592 -64.937277030432597  194.43817542120814 -51.343565138755366  197.33826475404203 -37.934597167884931  199.15248421719298 -24.846273922128603  199.99999985471368 -12.178482979739783  200 -1.6539877386715552e-007 
 0 9 0.52359877609829886 8 0.91629785742202285 8 1.505346479407609 8 2.0943951023931953 8 2.617993878491494 8 3.0106929598152181 8 3.5997415818008043 8 4.1887902047863905 8 4.7123889808846897 8 5.1050880622084138 8 5.6941366841939995 8 6.2831853071795862 9
7 0 0  4 11 4  1.53320362607524 99.999999999849237  1.53320362607524 174.24999999986454  1.53320362607524 248.49999999987853  1.53320362607524 322.74999999989518  1.53320362607524 471.24999999992758  1.53320362607524 545.49999999993599  1.53320362607524 619.7499999999585  1.53320362607524 770.49999999998022  1.53320362607524 846.99999999998272  1.53320362607524 923.49999999999477  1.53320362607524 1000.0000000000001 
 0 5 0.33000000000000451 3 0.66000000000001302 3 1 5
7 0 0  4 11 4  4499.999999999849 -200.00000000000003  4574.2499999998645 -200.00000000000003  4648.499999999879 -200.00000000000003  4722.7499999998945 -200.00000000000003  4871.2499999999263 -200.00000000000003  4945.4999999999363 -200.00000000000003  5019.7499999999582 -200.00000000000003  5170.4999999999791 -200.00000000000003  5246.9999999999818 -200.00000000000003  5323.4999999999936 -200.00000000000003  5399.9999999999991 -200.00000000000003 
 0 5 0.33000000000000451 3 0.66000000000001302 3 1 5
1 0 0 1 0 
1 0 0 1 0 
7 0 0  4 5 2  500 -500  500 -374.99999999999744  500 -250.00000000000333  500 -124.99999999999835  500 0 
 0 5 1 5
7 0 0  4 5 2  500 1000  500 874.9999999999975  500 750.00000000000341  500 624.99999999999841  500 500 
 0 5 1 5
7 0 0  4 5 2  5400 -199.99999999709863  5400 -149.99999999782455  5400 -99.999999998548489  5400 -49.999999999274912  5400 0 
 0 5 1 5
7 0 0  4 5 2  1.7763568394002505e-014 199.99999999709868  1.7763568394002505e-014 149.99999999782457  4.1744381840936448e-014 99.999999998548589  2.8421709430404014e-014 49.999999999274955  2.8421709430404014e-014 2.8421709430404014e-014 
 0 5 1 5
7 0 0  4 11 4  500 -500  829.99999999999864 -500  1160.0000000000023 -500  1489.9999999999984 -500  2150.0000000000027 -500  2479.9999999999977 -500  2810.0000000000009 -500  3479.9999999999959 -500  3820.0000000000082 -500  4159.9999999999955 -500  4500 -500 
 0 5 0.33000000000000029 3 0.6600000000000017 3 1 5
7 0 0  4 11 4  0 500  329.99999999999864 500  660.00000000000273 500  989.99999999999841 500  1650.0000000000025 500  1979.9999999999982 500  2310.0000000000009 500  2979.9999999999959 500  3320.0000000000082 500  3659.9999999999955 500  4000 500 
 0 5 0.33000000000000029 3 0.6600000000000017 3 1 5
7 0 0  8 16 3  5400 199.99999999999997  5400 187.65572490646636  5400 175.31144981172258  5400 162.96717471933985  5400 150.62289962375564  5400 138.27862453130339  5400 125.93434943666955  5400 113.59007434310661  5400 88.590074343042374  5400 75.934349436893427  5400 63.278624530744509  5400 50.622899624595583  5400 37.967174718446692  5400 25.311449812297798  5400 12.655724906148901  5400 0 
 0 9 0.49377100375534505 7 1 9
7 0 0  8 16 3  200 -1.6539877201182662e-007  187.65572490646639 -1.6539877201182662e-007  175.31144981173222 1.1939503907538735e-006  162.9671747193108 -2.2619900355354337e-006  150.62289962379515 2.2745185284657223e-006  138.27862453127625 -1.2707179708312942e-006  125.93434943667772 3.2633001620888604e-007  113.59007434310668 2.8421709456873787e-014  88.590074343042374 2.8421709456873787e-014  75.934349436893484 2.8421709479562178e-014  63.278624530744558 2.8421709500359852e-014  50.62289962459564 2.8421709504897531e-014  37.967174718446742 2.8421709489015666e-014  25.311449812297834 2.8421709458764491e-014  12.655724906148938 2.8421709430404007e-014  2.8421709430404014e-014 2.8421709430404007e-014 
 0 9 0.49377100375534505 7 1 9
7 0 0  4 11 4  4500 500  4170 500  3839.999999999995 500  3510.0000000000064 500  2849.9999999999891 500  2520.0000000000182 500  2189.9999999999918 500  1519.9999999999986 500  1180.0000000000014 500  839.99999999999932 500  500 500 
 0 5 0.32999999999999374 3 0.65999999999999193 3 1 5
7 0 0  4 11 4  4000 -500  3670 -500  3339.999999999995 -500  3010.0000000000064 -500  2349.9999999999891 -500  2020.0000000000182 -500  1689.9999999999918 -500  1019.9999999999986 -500  680.00000000000159 -500  339.99999999999926 -500  0 -500 
 0 5 0.32999999999999374 3 0.65999999999999193 3 1 5
7 0 0  4 5 2  500 0  500 125.00000000000055  500 249.99999999999929  500 375.00000000000051  500 500 
 0 5 1 5
7 0 0  4 5 2  500 500  625.00000000000057 500  749.99999999999932 500  875.00000000000045 500  1000 500 
 0 5 1 5
7 0 0  1 2 2  0 0  0 1000 
 0 2 1000 2
7 0 0  1 2 2  0 1000  1000 1000 
 0 2 1000 2
7 0 0  1 2 2  0 1000  4000 1000 
 0 2 4000 2
7 0 0  1 2 2  0 -1000  4000 -1000 
 0 2 4000 2
7 0 0  1 2 2  0 0  0 -1000 
 0 2 1000 2
7 0 0  1 2 2  1000 0  1000 1000 
 0 2 1000 2
Curves 18
8 0 1
7 0 0  7 62 11  199.99999999999989 5.6843418860808015e-014 4500  199.99999820213532 -21.739770111666644 4500  197.24295802464235 -43.966762867276429 4499.9999999999982  191.50719619347694 -66.103534072874481 4500  182.76022711874884 -87.583569258110913 4500.0000000000018  171.09794949943648 -107.8595975447156 4499.9999999999982  156.74101965309194 -126.39020809759671 4500  124.50412848743076 -158.04450190939895 4500  106.84536433421465 -171.46517630181302 4500.0000000000018  87.494180312143271 -182.5596013696437 4499.9999999999955  66.866631098866264 -191.06977041204692 4500.0000000000036  45.408157156000925 -196.83255734725896 4499.9999999999982  23.599878696805263 -199.77791896677377 4500  -7.8013106057575783 -200.08623979636786 4500  -17.537951859463476 -199.6253252653899 4500  -27.202011170424953 -198.6146545934501 4500  -36.751522586363251 -197.06576379789072 4500  -46.14680888616158 -194.99468661374095 4500  -55.350481579865118 -192.42195449371684 4500  -81.739212444013106 -183.45804125747173 4500  -96.595170722988655 -176.3230462218491 4499.9999999999991  -110.42309563836199 -168.30615594853469 4500  -124.35332092168272 -158.60768773773594 4500.0000000000009  -138.30678748621739 -146.58814108630884 4500  -151.28390352295116 -132.29774082833984 4500  -172.33201793746827 -102.82635133917711 4500  -180.69687857540021 -88.38807337842718 4499.9999999999973  -187.6823414768067 -73.077307271026257 4500.0000000000018  -193.16529792241107 -57.071984638165929 4500.0000000000018  -197.05530326334878 -40.567367433580159 4499.9999999999982  -199.29619900751095 -23.774991143219324 4500  -200.62649218370467 14.615744348739554 4500  -198.6654889480854 36.286881081595766 4500  -193.96429411287153 57.586083444939732 4500  -186.63620703865161 78.065634381627433 4500.0000000000018  -176.87506027144485 97.324309440198022 4499.9999999999982  -164.95855465271802 115.00290082186382 4500  -144.32934901571781 138.86015595071433 4500  -136.8920688797345 146.44031115169332 4500  -129.05461540108325 153.5032735291868 4500  -120.87897837581608 160.01496543083942 4500  -112.40816690985986 165.95994996193372 4500  -103.66620941901596 171.34143098539039 4500  -83.910450059318919 181.95574818084413 4500  -72.63298732578329 187.02956706398709 4500  -60.890620340147393 191.32792543427979 4500  -48.757056236735593 194.78840553206169 4500  -36.314854372403261 197.36095617492731 4500  -23.655426326536258 199.00789275772706 4500  11.980341223411472 200.94918083407924 4500  35.26329433314072 199.15558922613263 4499.9999999999982  58.348449588058998 194.16636664826615 4500.0000000000036  80.654478263352075 186.02944975126979 4499.9999999999955  101.63894083006358 174.91089530429758 4500.0000000000018  120.78707091402475 161.09698118309041 4500  154.92295463388314 128.70336433018531 4500  169.86589692222549 109.97379176407549 4500.0000000000036  182.02018657467806 89.378941460443912 4499.9999999999945  191.14323989262175 67.493069208202769 4500.0000000000055  197.12648974757781 44.897041300923547 4499.9999999999982  199.99999816455829 22.19415145319158 4500  199.99999999999989 5.6843418860808015e-014 4500 
 0 8 0.13049020344975501 6 0.25317997824683336 6 0.30855294746427619 6 0.41595473619158729 6 0.50563616193478789 6 0.62029703111045431 6 0.67863043203448215 6 0.74822925734734058 6 0.87275470954961909 6 1 8
7 0 0  4 5 2  0 199.99999410559016 4500  0 274.99999557919296 4500  0 349.99999705279458 4500  0 424.99999852639769 4500  0 500 4500 
 0 5 1 5
7 0 0  4 5 2  199.99999999999989 5.6843418860808015e-014 4500  275.00000000000017 5.6843418860808015e-014 4500  349.99999999999977 -7.1054148040233984e-014 4500  424.99999999999989 0 4500  500 0 4500 
 0 5 1 5
8 0 1000
7 0 0  1 2 2  -500 500 4500  500 500 4500 
 0 2 1000 2
8 0 1000
7 0 0  1 2 2  500 -500 4500  500 500 4500 
 0 2 1000 2
8 100.00000000000045 1000
7 0 0  1 2 2  200 -5.6843418860808015e-014 4499.9999999991996  200 -5.6843418860808015e-014 5400 
 99.999999999200099 2 1000 2
8 0 6.2831853071795862
7 1 0  2 7 4  200 0 5400  1 200 346.41016151377539 5400  0.50000000000000011 -99.999999999999943 173.20508075688781 5400  1 -399.99999999999989 5.6843418860808015e-014 5400  0.50000000000000011 -100.00000000000011 -173.2050807568877 5400  1 199.99999999999966 -346.41016151377551 5400  0.50000000000000011 200 0 5400  1
 0 3 2.0943951023931953 2 4.1887902047863905 2 6.2831853071795862 3
7 0 0  4 11 4  1.7678543938704539e-014 200.00000000000003 4499.999999999849  1.7678543938704539e-014 200.00000000000003 4574.2499999998645  1.7678543938704539e-014 200.00000000000003 4648.499999999879  1.7678543938704539e-014 200.00000000000003 4722.7499999998945  1.7678543938704539e-014 200.00000000000003 4871.2499999999263  1.7678543938704539e-014 200.00000000000003 4945.4999999999363  1.7678543938704539e-014 200.00000000000003 5019.7499999999582  1.7678543938704539e-014 200.00000000000003 5170.4999999999791  1.7678543938704539e-014 200.00000000000003 5246.9999999999818  1.7678543938704539e-014 200.00000000000003 5323.4999999999936  1.7678543938704539e-014 200.00000000000003 5399.9999999999991 
 0 5 0.33000000000000451 3 0.66000000000001302 3 1 5
1 0 0 0 0 0 1 
7 0 0  4 5 2  0 500 500  0 374.99999999999744 500  0 250.00000000000333 500  0 124.99999999999835 500  0 0 500 
 0 5 1 5
7 0 0  4 5 2  -1.0658141036401506e-014 199.99999999709863 5400  -1.0658141036401506e-014 149.99999999782455 5400  1.3322672410532434e-014 99.999999998548489 5400  0 49.999999999274912 5400  0 0 5400 
 0 5 1 5
7 0 0  4 11 4  0 500 500  0 500 829.99999999999864  0 500 1160.0000000000023  0 500 1489.9999999999984  0 500 2150.0000000000027  0 500 2479.9999999999977  0 500 2810.0000000000009  0 500 3479.9999999999959  0 500 3820.0000000000082  0 500 4159.9999999999955  0 500 4500 
 0 5 0.33000000000000029 3 0.6600000000000017 3 1 5
7 0 0  8 16 3  199.99999999999997 1.6539869708773305e-007 5400  187.65572490646636 1.6539869708773305e-007 5400  175.31144981172258 -1.1939496163185304e-006 5400  162.96717471933985 2.2619886506023787e-006 5400  150.62289962375564 -2.2745170788611275e-006 5400  138.27862453130339 1.2707172052727944e-006 5400  125.93434943666955 -3.2632978388705683e-007 5400  113.59007434310661 2.6469773290809644e-023 5400  88.590074343042374 2.6469773290809644e-023 5400  75.934349436893427 3.3560214680197978e-023 5400  63.278624530744509 3.8759957977385616e-023 5400  50.622899624595583 3.7058459111859278e-023 5400  37.967174718446692 2.7415769424181462e-023 5400  25.311449812297798 1.2762535665990387e-023 5400  12.655724906148901 0 5400  0 0 5400 
 0 9 0.49377100375534505 7 1 9
7 0 0  4 11 4  500 0 4500  500 0 4170  500 0 3839.999999999995  500 0 3510.0000000000064  500 0 2849.9999999999891  500 0 2520.0000000000182  500 0 2189.9999999999918  500 0 1519.9999999999986  500 0 1180.0000000000014  500 0 839.99999999999932  500 0 500 
 0 5 0.32999999999999374 3 0.65999999999999193 3 1 5
7 0 0  4 5 2  0 0 500  125.00000000000055 0 500  249.99999999999929 0 500  375.00000000000051 0 500  500 0 500 
 0 5 1 5
8 0 1000
7 0 0  1 2 2  -500 500 500  500 500 500 
 0 2 1000 2
8 0 4000
7 0 0  1 2 2  500 500 500  500 500 4500 
 0 2 4000 2
8 0 1000
7 0 0  1 2 2  500 -500 500  500 500 500 
 0 2 1000 2
Polygon3D 0
PolygonOnTriangulations 0
Surfaces 8
9 0 0 0 0 1 1 2 2 2 2 -499.99999999900001 -499.99999999900001 4500  -499.99999999900001 499.99999999900001 4500  
499.99999999900001 -499.99999999900001 4500  499.99999999900001 499.99999999900001 4500  

1.0000000000000001e-009 2
999.99999999900001 2

1.0000000000000001e-009 2
999.99999999900001 2

9 0 1 1 0 2 1 6 2 4 2 200 0 4400.0000000010004  1 200 0 5399.9999999989996  1 
200 346.41016151377539 4400.0000000010004  0.5 200 346.41016151377539 5399.9999999989996  0.5 
-99.999999999999943 173.20508075688781 4400.0000000010004  1 -99.999999999999943 173.20508075688781 5399.9999999989996  1 
-399.99999999999989 5.6843418860808015e-014 4400.0000000010004  0.5 -399.99999999999989 5.6843418860808015e-014 5399.9999999989996  0.5 
-100.00000000000011 -173.2050807568877 4400.0000000010004  1 -100.00000000000011 -173.2050807568877 5399.9999999989996  1 
199.99999999999966 -346.41016151377556 4400.0000000010004  0.5 199.99999999999966 -346.41016151377556 5399.9999999989996  0.5 

0 2
2.0943951023931953 2
4.1887902047863905 2
6.2831853071795862 2

1.0000000000000001e-009 2
999.99999999900001 2

1 0 0 0 1 0 -0 0 0 1 0 -1 0 
1 0 0 0 -0 1 0 0 0 1 1 0 -0 
9 0 0 0 0 1 1 2 2 2 2 -499.99999999900001 500 500.00000000099999  499.99999999900001 500 500.00000000099999  
-499.99999999900001 500 4499.9999999989996  499.99999999900001 500 4499.9999999989996  

1.0000000000000001e-009 2
3999.999999999 2

1.0000000000000001e-009 2
999.99999999900001 2

9 0 0 0 0 1 1 2 2 2 2 500 499.99999999900001 500.00000000099999  500 -499.99999999900001 500.00000000099999  
500 499.99999999900001 4499.9999999989996  500 -499.99999999900001 4499.9999999989996  

1.0000000000000001e-009 2
3999.999999999 2

-999.99999999900001 2
-1.0000000000000001e-009 2

9 0 0 0 0 1 1 2 2 2 2 -214.68304511045392 -214.68304511045392 5400  -214.68304511045392 214.68304511045392 5400  
214.68304511045392 -214.68304511045392 5400  214.68304511045392 214.68304511045392 5400  

-214.68304511045392 2
214.68304511045392 2

-214.68304511045392 2
214.68304511045392 2

9 0 0 0 0 1 1 2 2 2 2 -499.99999999900001 -499.99999999900001 500  -499.99999999900001 499.99999999900001 500  
499.99999999900001 -499.99999999900001 500  499.99999999900001 499.99999999900001 500  

1.0000000000000001e-009 2
999.99999999900001 2

1.0000000000000001e-009 2
999.99999999900001 2

Triangulations 0

TShapes 49
Ve
3.40364297434875
1.76785439387045e-014 200 4499.99999999985
0 0

0101101
*
Ve
3.40364297434875
200 5.6843418860808e-014 4500
0 0

0101101
*
Ed
 3.40364297434875 1 1 0
1  1 0 0.759175878711364 1
2  1 1 0 0.759175878711364 1
2  2 2 0 0.759175878711364 1
0

0101000
+49 0 -48 0 *
Ve
1e-007
0 500 4500
0 0

0101101
*
Ed
 1e-007 1 1 0
1  2 0 0 1
2  3 1 0 0 1
2  4 3 0 0 1
0

0101000
+49 0 -46 0 *
Ve
0.0001
500 0 4500
0 0

0101101
*
Ed
 0.0001 1 1 0
1  3 0 0 1
2  5 1 0 0 1
2  6 4 0 0 1
0

0101000
+48 0 -44 0 *
Ve
1e-007
500 500 4500
0 0

0101101
*
Ed
 1e-007 1 1 0
1  4 0 500 1000
2  7 1 0 500 1000
2  8 5 0 500 1000
0

0101000
+46 0 -42 0 *
Ed
 1e-007 1 1 0
1  5 0 500 1000
2  9 1 0 500 1000
2  10 6 0 500 1000
0

0101000
+44 0 -42 0 *
Wi

0101000
+47 0 -45 0 +43 0 -41 0 +40 0 *
Fa
0  1e-007 1 0

0111000
+39 0 *
Ve
3.47337372397334e-007
200 -5.6843418860808e-014 5400
0 0

0101101
*
Ed
 3.47337372397334e-007 1 1 0
1  6 0 100 1000
2  11 2 0 100 1000
2  12 4 0 100 1000
0

0101000
+48 0 -37 0 *
Ve
0.0001
1.76785439387045e-014 200 5400
0 0

0101101
*
Ed
 0.0001 1 1 0
1  7 0 0 1.53320362653934
2  13 2 0 0 1.53320362653934
2  14 7 0 0 1.53320362653934
0

0101000
+37 0 -35 0 *
Ed
 0.0001 1 1 0
1  8 0 0 1
2  15 2 0 0 1
2  16 3 0 0 1
0

0101000
+49 0 -35 0 *
Wi

0101000
-36 0 -47 0 -34 0 +33 0 *
Fa
0  1e-007 2 0

0111000
+32 0 *
Ve
1e-007
0 0 500
0 0

0101101
*
Ve
3.47337372397334e-007
0 0 5400
0 0

0101101
*
Ed
 3.47337372397334e-007 1 1 0
1  9 0 500 5400
2  17 3 0 500 5400
2  18 4 0 500 5400
0

0101000
+30 0 -29 0 *
Ve
1e-007
0 500 500
0 0

0101101
*
Ed
 1e-007 1 1 0
1  10 0 0 1
2  19 3 0 0 1
2  20 8 0 0 1
0

0101000
+27 0 -30 0 *
Ed
 3.47337372397334e-007 1 1 0
1  11 0 0 1
2  21 3 0 0 1
2  22 7 0 0 1
0

0101000
+35 0 -29 0 *
Ed
 1e-007 1 1 0
1  12 0 0 1
2  23 3 0 0 1
2  24 5 0 0 1
0

0101000
+27 0 -46 0 *
Wi

0101000
-28 0 -26 0 +25 0 +24 0 +33 0 -45 0 *
Fa
0  1e-007 3 0

0111000
+23 0 *
Ed
 3.47337372397334e-007 1 1 0
1  13 0 0 1
2  25 4 0 0 1
2  26 7 0 0 1
0

0101000
+37 0 -29 0 *
Ve
1e-007
500 0 500
0 0

0101101
*
Ed
 1e-007 1 1 0
1  14 0 0 1
2  27 4 0 0 1
2  28 6 0 0 1
0

0101000
+44 0 -20 0 *
Ed
 1e-007 1 1 0
1  15 0 0 1
2  29 4 0 0 1
2  30 8 0 0 1
0

0101000
+30 0 -20 0 *
Wi

0101000
-36 0 +43 0 -21 0 +19 0 +28 0 -18 0 *
Fa
0  1e-007 4 0

0111000
+17 0 *
Ve
1e-007
500 500 500
0 0

0101101
*
Ed
 1e-007 1 1 0
1  16 0 500 1000
2  31 5 0 500 1000
2  32 8 0 500 1000
0

0101000
+27 0 -15 0 *
Ed
 1e-007 1 1 0
1  17 0 0 4000
2  33 5 0 0 4000
2  34 6 0 0 4000
0

0101000
-42 0 +15 0 *
Wi

0101000
-14 0 +24 0 -13 0 +41 0 *
Fa
0  1e-007 5 0

0111000
+12 0 *
Ed
 1e-007 1 1 0
1  18 0 500 1000
2  35 6 0 500 1000
2  36 8 0 500 1000
0

0101000
+20 0 -15 0 *
Wi

0101000
-40 0 +19 0 +13 0 +10 0 *
Fa
0  1e-007 6 0

0111000
+9 0 *
Wi

0101000
+34 0 -21 0 +25 0 *
Fa
0  1e-007 7 0

0111000
+7 0 *
Wi

0101000
-14 0 +26 0 +10 0 +18 0 *
Fa
0  1e-007 8 0

0111000
+5 0 *
Sh

0101000
+38 0 +31 0 -22 0 -16 0 +11 0 +8 0 +6 0 -4 0 *
So

0100000
+3 0 *
Co

1100000
+2 0 *

+1 0 